<svg width="124" height="128" viewBox="0 0 124 128" fill="none" xmlns="http://www.w3.org/2000/svg">
<path d="M42.59 4.20996C56.4186 -0.537472 71.4559 -0.406898 85.2 4.57996C92.7482 7.40559 99.6638 11.6943 105.55 17.2C103.55 19.34 101.44 21.34 99.4 23.42C95.52 27.2933 91.6433 31.1533 87.77 35C83.9085 31.3073 79.2377 28.5679 74.13 27C67.5938 25.0264 60.6402 24.8912 54.0322 26.6094C47.4242 28.3275 41.4171 31.8326 36.67 36.74C32.5263 40.9553 29.3883 46.0521 27.49 51.65L6.76001 35.6C14.1801 20.8856 27.0275 9.6302 42.59 4.20996Z" fill="#E33629"/>
<path d="M1.25999 51.5C2.3742 45.9779 4.22403 40.6302 6.75999 35.6L27.49 51.69C24.7781 59.676 24.7781 68.3339 27.49 76.32C20.5833 81.6533 13.6733 87.0133 6.75999 92.4C0.411498 79.7631 -1.52468 65.365 1.25999 51.5Z" fill="#F8BD00"/>
<path d="M63.2701 52.15H122.79C124.826 63.3194 124.275 74.8067 121.18 85.73C118.332 95.7748 112.801 104.853 105.18 111.99C98.4901 106.77 91.7701 101.59 85.0801 96.37C88.3968 94.1328 91.2278 91.249 93.4032 87.8913C95.5786 84.5337 97.0537 80.7715 97.7401 76.83H63.2701C63.2601 68.61 63.2701 60.38 63.2701 52.15Z" fill="#587DBD"/>
<path d="M6.75 92.3999C13.6633 87.0666 20.5733 81.7066 27.48 76.3199C30.1521 84.1619 35.234 90.9589 42 95.7399C46.2201 98.7226 51.0153 100.793 56.08 101.82C61.0706 102.748 66.1894 102.748 71.18 101.82C76.156 100.978 80.9008 99.1042 85.11 96.3199C91.8 101.54 98.52 106.72 105.21 111.94C97.8889 118.597 88.9642 123.239 79.31 125.41C68.6541 127.915 57.5492 127.795 46.95 125.06C38.567 122.822 30.7368 118.876 23.95 113.47C16.7666 107.767 10.8996 100.58 6.75 92.3999Z" fill="#319F43"/>
</svg>
